<svg width="274px" height="116px" viewBox="0 0 274 70" version="1.1" xmlns="http://www.w3.org/2000/svg" xmlns:xlink="http://www.w3.org/1999/xlink">
    <g id="Login---Dashboard" stroke="none" stroke-width="1" fill="none" fill-rule="evenodd">
        <g id="00-Login-nuevo" transform="translate(-50.000000, -158.000000)">
            <g id="Componentes/mobile/ui/usuario-generico" transform="translate(0.000000, 159.000000)">
                <g id="Componentes/ui/faceid/foto-usuario-generico" transform="translate(148.000000, 0.000000)">
                    <circle id="Oval" stroke="#0BB7FD" stroke-width="2" cx="39.5744681" cy="39.5744681" r="38.7234043"></circle>
                    <g id="user" stroke-width="1" fill-rule="evenodd" transform="translate(3.404255, 3.404255)">
                        <path d="M25.4051385,56.7148936 L14.612766,62.6017664 C13.979446,62.9470895 13.410277,63.3715777 12.8806905,63.8342834 C19.1729426,69.1397029 27.295544,72.3404255 36.1702128,72.3404255 C44.9793657,72.3404255 53.0501004,69.1874749 59.3246086,63.9543958 C58.7458852,63.4657567 58.1180249,63.0262545 57.4219189,62.6795664 L45.8651947,56.9018868 C44.3719791,56.155279 43.4288238,54.6293055 43.4288238,52.9600161 L43.4288238,48.4257728 C43.7536732,48.0558812 44.1249297,47.5808912 44.5221196,47.0199117 C46.09723,44.7951024 47.2887997,42.3478121 48.1145725,39.7804095 C49.5968687,39.3231634 50.6887997,37.954155 50.6887997,36.3271778 L50.6887997,31.4871939 C50.6887997,30.4225612 50.2151746,29.4712164 49.4794862,28.8051385 L49.4794862,21.8085909 C49.4794862,21.8085909 50.9167403,10.9206744 36.1715777,10.9206744 C21.4264151,10.9206744 22.8636692,21.8085909 22.8636692,21.8085909 L22.8636692,28.8051385 C22.1266158,29.4712164 21.6543557,30.4225612 21.6543557,31.4871939 L21.6543557,36.3271778 C21.6543557,37.6020072 22.3245283,38.7239663 23.3277399,39.3723003 C24.5370534,44.6367724 27.7036532,48.4257728 27.7036532,48.4257728 L27.7036532,52.8480931 C27.7022882,54.4586913 26.820554,55.9423525 25.4051385,56.7148936 Z" id="Path" fill="#FFFFFF"></path>
                        <path d="M36.7885187,0.00545965476 C16.8157367,-0.335768768 0.346688077,15.5791248 0.00545965476,35.5519069 C-0.188358089,46.8765957 4.85909273,57.0547571 12.8957045,63.8233641 C13.4211963,63.3647531 13.9849057,62.9443597 14.611401,62.6031313 L25.4037736,56.7162585 C26.8191891,55.9437174 27.7009233,54.4600562 27.7009233,52.8467282 L27.7009233,48.4244079 C27.7009233,48.4244079 24.5329587,44.6354075 23.32501,39.3709354 C22.3231634,38.7226014 21.6516259,37.6020072 21.6516259,36.3258129 L21.6516259,31.485829 C21.6516259,30.4211963 22.1252509,29.4698515 22.8609394,28.8037736 L22.8609394,21.807226 C22.8609394,21.807226 21.4236853,10.9193095 36.1688479,10.9193095 C50.9140104,10.9193095 49.4767563,21.807226 49.4767563,21.807226 L49.4767563,28.8037736 C50.2138097,29.4698515 50.6860699,30.4211963 50.6860699,31.485829 L50.6860699,36.3258129 C50.6860699,37.95279 49.5941389,39.3217985 48.1118426,39.7790446 C47.2860699,42.3464472 46.0945002,44.7937375 44.5193898,47.0185468 C44.1221999,47.5795263 43.7509434,48.0545163 43.4260939,48.4244079 L43.4260939,52.9586511 C43.4260939,54.6279406 44.3692493,56.155279 45.8624649,56.9005219 L57.4191891,62.6782015 C58.1125652,63.0248896 58.7390606,63.4630269 59.3164191,63.9503011 C67.1100763,57.4505821 72.1452429,47.7323966 72.332236,36.7885187 C72.6761943,16.8157367 56.7626656,0.346688077 36.7885187,0.00545965476 Z" id="Path" fill="#C7C7C7"></path>
                    </g>
                </g>
            </g>
        </g>
    </g>
</svg>